<svg width="26" height="20" viewBox="0 0 26 20" fill="none" xmlns="http://www.w3.org/2000/svg">
<path fill-rule="evenodd" clip-rule="evenodd" d="M22.8182 5.56892C22.6384 5.35936 22.3227 5.33527 22.1132 5.5151C21.9036 5.69493 21.8795 6.0106 22.0593 6.22016C22.9574 7.26659 23.7429 8.4045 24.403 9.61514C24.5304 9.85295 24.532 10.1382 24.4077 10.3771C24.406 10.38 24.4044 10.3829 24.4028 10.3859C23.1719 12.6624 21.4202 14.7842 19.4171 16.3322C17.4112 17.8824 15.1861 18.833 13 18.833L12.9854 18.8332C11.9382 18.8312 10.8805 18.609 9.84192 18.207C9.58439 18.1073 9.29482 18.2353 9.19515 18.4928C9.09547 18.7503 9.22343 19.0399 9.48096 19.1395C10.6215 19.581 11.8067 19.8333 13.0001 19.8333L13.0157 19.833C15.4842 19.8285 17.9132 18.7582 20.0286 17.1235C22.1473 15.4861 23.9842 13.2584 25.2755 10.8744C25.2781 10.8699 25.2807 10.8653 25.2831 10.8607C25.572 10.3236 25.572 9.67744 25.2831 9.14037L25.2818 9.13787C24.5879 7.86517 23.7622 6.66894 22.8182 5.56892ZM5.97136 2.87639C8.09118 1.23801 10.526 0.166672 13 0.166672H13C15.3386 0.166672 17.6435 1.12439 19.6789 2.61398L21.9798 0.313118C22.175 0.117856 22.4916 0.117856 22.6869 0.313118C22.8821 0.508381 22.8821 0.824963 22.6869 1.02023L20.0836 3.62348C20.0802 3.627 20.0767 3.63046 20.0732 3.63385L6.64928 17.0578C6.63528 17.0737 6.62045 17.0885 6.60493 17.1022L4.0202 19.6869C3.82494 19.8822 3.50836 19.8822 3.31309 19.6869C3.11783 19.4916 3.11783 19.175 3.31309 18.9798L5.5255 16.7674C3.5919 15.1668 1.91836 13.0821 0.717501 10.8619L0.716937 10.8608C0.428094 10.3238 0.428094 9.67758 0.716937 9.14051L0.717444 9.13957C2.00915 6.75006 3.8488 4.51689 5.97136 2.87639ZM6.23593 16.0569L9.34232 12.9506C8.40566 11.79 8.06924 10.2423 8.46036 8.78264C8.89498 7.16063 10.1619 5.8937 11.7839 5.45908C13.2436 5.06796 14.7913 5.40438 15.9518 6.34104L18.9628 3.33006C17.0787 1.98043 15.0221 1.16667 13 1.16667H13C10.8139 1.16667 8.58873 2.11733 6.58289 3.66762C4.57993 5.21567 2.82837 7.33763 1.59742 9.61459C1.46794 9.85569 1.46793 10.1456 1.59741 10.3867C2.75719 12.5308 4.37826 14.537 6.23593 16.0569ZM15.2396 7.05328L10.0546 12.2383C9.36763 11.3349 9.12776 10.1556 9.42629 9.04146C9.76844 7.76454 10.7658 6.76716 12.0427 6.42501C13.1569 6.12648 14.3361 6.36635 15.2396 7.05328Z" fill="#FE3E6D"/>
</svg>
