<svg width="24" height="24" viewBox="0 0 24 24" fill="none" xmlns="http://www.w3.org/2000/svg">
<path d="M2.55118 17.2863C2.54653 17.2961 2.54221 17.306 2.53823 17.316C2.5277 17.3412 2.51909 17.3676 2.51263 17.395L2.5124 17.396C2.50849 17.4126 2.50545 17.4292 2.50326 17.4458C2.51222 17.3712 2.53956 17.2975 2.58461 17.2248C2.5721 17.2451 2.56097 17.2656 2.55118 17.2863ZM20.449 17.7143C20.5127 17.5793 20.5129 17.4228 20.4491 17.2875C20.4335 17.2544 20.4142 17.2212 20.391 17.1879C20.463 17.29 20.5 17.3943 20.5 17.5002C20.5 17.5723 20.4828 17.6437 20.449 17.7143ZM20.1483 7.16531L20.1491 7.16613L20.1499 7.16695L20.1499 7.16704L20.1491 7.16786L20.1483 7.16868L19.2964 8.02055C19.4394 7.87755 19.4822 7.66249 19.4048 7.47565C19.3274 7.28881 19.1451 7.16699 18.9429 7.16699C19.1451 7.16699 19.3274 7.04517 19.4048 6.85833C19.4822 6.6715 19.4394 6.45644 19.2964 6.31344L20.1483 7.16531Z" fill="#3B3B3B" stroke="#3B3B3B" stroke-linecap="round" stroke-linejoin="round"/>
</svg>
